<svg width="349" height="127" viewBox="0 0 349 127" fill="none" xmlns="http://www.w3.org/2000/svg">
<path d="M220.094 120.156H214.375C213.8 120.156 213.235 120.06 212.73 119.878C212.226 119.695 211.798 119.432 211.487 119.111C211.176 118.791 210.99 118.423 210.948 118.043C210.906 117.663 211.008 117.281 211.245 116.934L225.094 96.6522L204.299 96.3457L196.715 102.444C195.269 103.65 194.115 104.188 191.172 104.188H187.322C186.712 104.201 186.107 104.116 185.557 103.941C185.007 103.765 184.529 103.505 184.164 103.181C183.652 102.723 183.15 101.948 183.639 100.841L187.898 90.7181C187.93 90.6426 187.969 90.567 188.012 90.4929C188.014 90.4858 188.014 90.4785 188.012 90.4715C187.967 90.3974 187.929 90.3217 187.898 90.2448L183.635 80.0576C183.173 78.9726 183.678 78.214 184.185 77.7678C184.526 77.468 184.967 77.2253 185.475 77.0594C185.982 76.8935 186.541 76.8089 187.107 76.8125H191.172C193.37 76.8125 195.503 77.4669 196.758 78.5234L204.185 84.5188L225.094 84.3135L211.249 64.0674C211.012 63.7202 210.909 63.339 210.951 62.9587C210.993 62.5784 211.178 62.2111 211.489 61.8905C211.8 61.5698 212.227 61.306 212.731 61.1232C213.235 60.9403 213.8 60.8442 214.375 60.8438H220.156C220.963 60.8545 221.756 60.9857 222.475 61.2276C223.195 61.4695 223.823 61.8159 224.314 62.241L251.18 83.9129L263.591 83.6962C264.5 83.6634 267.018 83.652 267.6 83.652C279.473 83.6563 286.563 86.2141 286.563 90.5C286.563 91.8488 285.75 94.3496 280.317 95.9408C277.109 96.8818 272.83 97.358 267.596 97.358C267.02 97.358 264.509 97.3466 263.587 97.3138L251.178 97.0942L224.245 118.766C223.754 119.189 223.126 119.534 222.408 119.775C221.689 120.015 220.899 120.146 220.094 120.156V120.156Z" fill="black"/>
<path d="M26.688 17.896C26.176 17.672 25.664 17.56 25.152 17.56C24.672 17.56 24.192 17.864 23.712 18.472C23.264 19.08 22.96 19.96 22.8 21.112L20.304 38.92C19.856 42.152 18.736 44.696 16.944 46.552C15.184 48.408 12.976 49.336 10.32 49.336C7.664 49.336 5.6 48.6 4.128 47.128C2.688 45.624 1.968 43.848 1.968 41.8C1.968 39.72 2.672 37.96 4.08 36.52C5.52 35.08 7.328 34.36 9.504 34.36C10.848 34.36 11.904 34.456 12.672 34.648L12.432 37.576C11.888 37.448 11.04 37.384 9.888 37.384C8.768 37.384 7.76 37.768 6.864 38.536C6 39.304 5.568 40.264 5.568 41.416C5.568 42.568 5.888 43.464 6.528 44.104C7.168 44.712 7.936 45.016 8.832 45.016C11.52 45.016 13.088 43.032 13.536 39.064C14.4 31.128 15.024 25.768 15.408 22.984C13.488 23.656 11.792 23.992 10.32 23.992C7.984 23.992 6.192 23.448 4.944 22.36C3.728 21.272 3.12 19.848 3.12 18.088C3.12 16.328 3.744 14.952 4.992 13.96C6.272 12.936 7.872 12.424 9.792 12.424C10.976 12.424 12.672 12.792 14.88 13.528C17.12 14.264 18.848 14.632 20.064 14.632C22.24 14.632 24.064 14.072 25.536 12.952C26.336 14.072 26.736 15.4 26.736 16.936C26.736 17.256 26.72 17.576 26.688 17.896ZM7.872 19.384C7.872 19.864 8.128 20.28 8.64 20.632C9.184 20.984 9.984 21.16 11.04 21.16C12.128 21.16 13.536 20.68 15.264 19.72C14.016 19.432 12.736 19.112 11.424 18.76C10.112 18.376 9.328 18.184 9.072 18.184C8.272 18.184 7.872 18.584 7.872 19.384ZM38.4671 43.624L39.6191 32.92C39.6191 32.056 39.3951 31.336 38.9471 30.76C38.4991 30.184 37.7471 29.896 36.6911 29.896C35.6671 29.896 34.7871 30.36 34.0511 31.288C33.3471 32.184 32.8991 33.32 32.7071 34.696C31.5551 43.464 30.9471 48.232 30.8831 49H24.4031L27.0431 26.392C28.3871 26.04 29.4111 25.864 30.1151 25.864C32.2591 25.864 33.3791 26.648 33.4751 28.216C35.0431 26.68 36.9151 25.912 39.0911 25.912C41.2991 25.912 43.0271 26.456 44.2751 27.544C45.5231 28.632 46.1471 30.008 46.1471 31.672C46.1471 32.12 46.0511 32.968 45.8591 34.216C45.1231 39.08 44.7551 41.912 44.7551 42.712C44.7551 44.184 45.2511 44.92 46.2431 44.92C48.4191 44.92 50.0671 42.648 51.1871 38.104C52.2751 39.256 52.9311 40.168 53.1551 40.84C51.4591 46.472 48.5151 49.288 44.3231 49.288C42.3391 49.288 40.8671 48.68 39.9071 47.464C38.9471 46.248 38.4671 44.968 38.4671 43.624ZM60.5258 15.592C60.5258 15.784 60.0938 19.224 59.2298 25.912H66.2858V29.608H58.7498L58.6058 30.808C62.3498 33.944 64.2218 37.368 64.2218 41.08C64.2218 43.992 63.4698 46.088 61.9658 47.368C60.4938 48.648 58.7178 49.288 56.6378 49.288C54.5578 49.288 53.0378 48.744 52.0778 47.656C51.1178 46.536 50.6378 45.192 50.6378 43.624C50.6378 43.272 50.6698 42.888 50.7338 42.472L52.2218 29.704L52.0298 29.608H48.1418C48.1098 29.288 48.0938 28.776 48.0938 28.072C48.0938 27.336 48.2378 26.616 48.5258 25.912H52.6538L54.1898 12.856C54.8618 12.6 55.7578 12.472 56.8778 12.472C59.3098 12.472 60.5258 13.512 60.5258 15.592ZM61.0058 41.032C61.0058 38.824 60.0458 36.648 58.1258 34.504C57.5498 39.272 57.2618 42.024 57.2618 42.76C57.2618 44.2 57.7258 44.92 58.6538 44.92C59.3258 44.92 59.8858 44.616 60.3338 44.008C60.7818 43.368 61.0058 42.376 61.0058 41.032ZM75.1058 38.248C77.0898 37.832 78.5618 37.032 79.5218 35.848C80.5138 34.664 81.0098 33.528 81.0098 32.44C81.0098 31.32 80.7058 30.568 80.0978 30.184C79.5218 29.768 78.8818 29.56 78.1778 29.56C76.6738 29.56 75.3458 30.408 74.1938 32.104C73.0738 33.768 72.5138 35.768 72.5138 38.104C72.5138 40.408 73.0578 42.136 74.1458 43.288C75.2658 44.408 76.6418 44.968 78.2738 44.968C80.6738 44.968 82.9778 44.136 85.1858 42.472C87.3938 40.808 89.1858 38.632 90.5618 35.944C91.2658 36.616 91.9058 37.448 92.4818 38.44C91.4258 40.84 89.5538 43.192 86.8658 45.496C85.5218 46.616 83.9218 47.528 82.0658 48.232C80.2418 48.936 78.3538 49.288 76.4018 49.288C73.2018 49.288 70.6738 48.312 68.8178 46.36C66.8338 44.248 65.8418 41.544 65.8418 38.248C65.8418 34.952 67.0738 32.072 69.5378 29.608C72.0338 27.144 75.0098 25.912 78.4658 25.912C80.9298 25.912 82.9298 26.456 84.4658 27.544C86.0018 28.6 86.7858 30.04 86.8178 31.864C86.8178 34.328 85.8258 36.328 83.8418 37.864C81.8898 39.4 79.2018 40.472 75.7778 41.08L75.1058 38.248ZM102.697 32.2C102.697 30.792 102.041 30.088 100.729 30.088C99.4491 30.088 98.4251 30.92 97.6571 32.584C101.113 35.304 102.841 38.36 102.841 41.752C102.841 44.216 102.153 46.088 100.777 47.368C99.4011 48.648 97.6731 49.288 95.5931 49.288C93.5131 49.288 91.9931 48.648 91.0331 47.368C90.0731 46.056 89.5931 44.408 89.5931 42.424C89.5931 41.816 89.6091 41.368 89.6411 41.08L91.3211 26.44C92.4731 26.088 93.6411 25.912 94.8251 25.912C96.7771 25.912 97.7531 26.632 97.7531 28.072V28.168C99.0331 26.664 100.665 25.912 102.649 25.912C104.089 25.912 105.209 26.248 106.009 26.92C106.809 27.56 107.209 28.424 107.209 29.512C107.209 30.6 106.793 31.496 105.961 32.2C105.161 32.872 104.105 33.208 102.793 33.208C102.729 33.208 102.665 33.208 102.601 33.208C102.665 32.856 102.697 32.52 102.697 32.2ZM99.7211 41.512C99.7211 39.656 98.7611 37.8 96.8411 35.944C96.2651 40.552 95.9771 42.872 95.9771 42.904C95.9771 44.248 96.5211 44.92 97.6091 44.92C99.0171 44.92 99.7211 43.784 99.7211 41.512ZM123.342 32.728C123.342 30.648 122.414 29.608 120.558 29.608C119.182 29.608 117.95 30.392 116.862 31.96C115.71 33.656 115.134 35.64 115.134 37.912C115.134 40.184 115.63 41.944 116.622 43.192C117.646 44.408 119.038 45.016 120.798 45.016C122.91 45.016 125.134 44.152 127.47 42.424C129.838 40.696 131.742 38.552 133.182 35.992C133.822 36.472 134.446 37.352 135.054 38.632C134.126 40.488 132.398 42.568 129.87 44.872C128.558 46.088 126.926 47.112 124.974 47.944C122.862 48.84 120.75 49.288 118.638 49.288C115.79 49.288 113.374 48.312 111.39 46.36C109.438 44.408 108.462 41.864 108.462 38.728C108.462 34.92 109.742 31.832 112.302 29.464C114.862 27.096 117.726 25.912 120.894 25.912C123.358 25.912 125.31 26.424 126.75 27.448C128.19 28.472 128.91 29.816 128.91 31.48C128.91 32.568 128.526 33.512 127.758 34.312C126.35 35.72 124.638 36.424 122.622 36.424C123.102 34.824 123.342 33.592 123.342 32.728ZM143.394 25.912C146.338 25.912 148.786 26.856 150.738 28.744C152.722 30.632 153.714 32.936 153.714 35.656C153.714 39.784 152.498 43.096 150.066 45.592C147.666 48.056 144.754 49.288 141.33 49.288C137.906 49.288 135.186 48.312 133.17 46.36C131.186 44.408 130.194 41.992 130.194 39.112C130.194 35.08 131.426 31.88 133.89 29.512C136.386 27.112 139.554 25.912 143.394 25.912ZM142.434 29.8C140.93 29.8 139.666 30.664 138.642 32.392C137.618 34.12 137.058 36.296 136.962 38.92C136.962 40.776 137.33 42.312 138.066 43.528C138.834 44.744 139.986 45.352 141.522 45.352C143.058 45.352 144.338 44.504 145.362 42.808C146.418 41.112 146.946 39.176 146.946 37C146.946 34.824 146.578 33.096 145.842 31.816C145.106 30.472 143.97 29.8 142.434 29.8ZM169.436 43.624L170.588 32.92C170.588 32.056 170.364 31.336 169.916 30.76C169.468 30.184 168.716 29.896 167.66 29.896C166.636 29.896 165.756 30.36 165.02 31.288C164.316 32.184 163.868 33.32 163.676 34.696C162.524 43.464 161.916 48.232 161.852 49H155.372L158.012 26.392C159.356 26.04 160.38 25.864 161.084 25.864C163.228 25.864 164.348 26.648 164.444 28.216C166.012 26.68 167.884 25.912 170.06 25.912C172.268 25.912 173.996 26.456 175.244 27.544C176.492 28.632 177.116 30.008 177.116 31.672C177.116 32.12 177.02 32.968 176.828 34.216C176.092 39.08 175.724 41.912 175.724 42.712C175.724 44.184 176.22 44.92 177.212 44.92C179.388 44.92 181.036 42.648 182.156 38.104C183.244 39.256 183.9 40.168 184.124 40.84C182.428 46.472 179.484 49.288 175.292 49.288C173.308 49.288 171.836 48.68 170.876 47.464C169.916 46.248 169.436 44.968 169.436 43.624ZM191.495 15.592C191.495 15.784 191.063 19.224 190.199 25.912H197.255V29.608H189.719L189.575 30.808C193.319 33.944 195.191 37.368 195.191 41.08C195.191 43.992 194.439 46.088 192.935 47.368C191.463 48.648 189.687 49.288 187.607 49.288C185.527 49.288 184.007 48.744 183.047 47.656C182.087 46.536 181.607 45.192 181.607 43.624C181.607 43.272 181.639 42.888 181.703 42.472L183.191 29.704L182.999 29.608H179.111C179.079 29.288 179.062 28.776 179.062 28.072C179.062 27.336 179.207 26.616 179.495 25.912H183.623L185.159 12.856C185.831 12.6 186.727 12.472 187.847 12.472C190.279 12.472 191.495 13.512 191.495 15.592ZM191.975 41.032C191.975 38.824 191.015 36.648 189.095 34.504C188.519 39.272 188.231 42.024 188.231 42.76C188.231 44.2 188.695 44.92 189.623 44.92C190.295 44.92 190.855 44.616 191.303 44.008C191.751 43.368 191.975 42.376 191.975 41.032ZM200.795 13.672C201.531 12.904 202.427 12.52 203.483 12.52C204.539 12.52 205.435 12.904 206.171 13.672C206.939 14.408 207.323 15.304 207.323 16.36C207.323 17.416 206.939 18.312 206.171 19.048C205.435 19.784 204.539 20.152 203.483 20.152C202.427 20.152 201.531 19.784 200.795 19.048C200.059 18.312 199.691 17.416 199.691 16.36C199.691 15.304 200.059 14.408 200.795 13.672ZM198.827 27.736C199.147 27.16 199.755 26.728 200.651 26.44C201.547 26.12 202.427 25.96 203.291 25.96C204.187 25.96 204.971 26.072 205.643 26.296C204.395 35.928 203.771 40.792 203.771 40.888C203.611 41.528 203.531 42.072 203.531 42.52C203.531 42.936 203.563 43.304 203.627 43.624C203.755 44.456 204.331 44.872 205.355 44.872C206.411 44.872 207.371 44.2 208.234 42.856C209.131 41.48 209.803 39.928 210.251 38.2C210.475 38.328 210.827 38.712 211.307 39.352C211.787 39.992 212.075 40.472 212.171 40.792C211.531 43.352 210.443 45.416 208.907 46.984C207.371 48.552 205.531 49.336 203.387 49.336C201.243 49.336 199.643 48.808 198.587 47.752C197.563 46.696 197.051 45.336 197.051 43.672C197.051 43.32 197.067 42.952 197.099 42.568L198.827 27.736ZM221.936 43.624L223.088 32.92C223.088 32.056 222.864 31.336 222.416 30.76C221.968 30.184 221.216 29.896 220.16 29.896C219.136 29.896 218.256 30.36 217.52 31.288C216.816 32.184 216.368 33.32 216.176 34.696C215.024 43.464 214.416 48.232 214.352 49H207.872L210.512 26.392C211.856 26.04 212.88 25.864 213.584 25.864C215.728 25.864 216.848 26.648 216.944 28.216C218.512 26.68 220.384 25.912 222.56 25.912C224.768 25.912 226.496 26.456 227.744 27.544C228.992 28.632 229.616 30.008 229.616 31.672C229.616 32.12 229.52 32.968 229.328 34.216C228.592 39.08 228.224 41.912 228.224 42.712C228.224 44.184 228.72 44.92 229.712 44.92C231.888 44.92 233.536 42.648 234.656 38.104C235.744 39.256 236.4 40.168 236.624 40.84C234.928 46.472 231.984 49.288 227.792 49.288C225.808 49.288 224.336 48.68 223.376 47.464C222.416 46.248 221.936 44.968 221.936 43.624ZM242.075 38.248C244.059 37.832 245.531 37.032 246.491 35.848C247.483 34.664 247.979 33.528 247.979 32.44C247.979 31.32 247.675 30.568 247.067 30.184C246.491 29.768 245.851 29.56 245.147 29.56C243.643 29.56 242.315 30.408 241.163 32.104C240.043 33.768 239.483 35.768 239.483 38.104C239.483 40.408 240.027 42.136 241.115 43.288C242.235 44.408 243.611 44.968 245.243 44.968C247.643 44.968 249.947 44.136 252.155 42.472C254.363 40.808 256.155 38.632 257.531 35.944C258.235 36.616 258.875 37.448 259.451 38.44C258.395 40.84 256.523 43.192 253.835 45.496C252.491 46.616 250.891 47.528 249.035 48.232C247.211 48.936 245.323 49.288 243.371 49.288C240.171 49.288 237.643 48.312 235.787 46.36C233.803 44.248 232.811 41.544 232.811 38.248C232.811 34.952 234.043 32.072 236.507 29.608C239.003 27.144 241.979 25.912 245.435 25.912C247.899 25.912 249.899 26.456 251.435 27.544C252.971 28.6 253.755 30.04 253.787 31.864C253.787 34.328 252.795 36.328 250.811 37.864C248.859 39.4 246.171 40.472 242.747 41.08L242.075 38.248ZM269.186 43.624L270.338 32.92C270.338 32.056 270.114 31.336 269.666 30.76C269.218 30.184 268.466 29.896 267.41 29.896C266.386 29.896 265.506 30.36 264.77 31.288C264.066 32.184 263.618 33.32 263.426 34.696C262.274 43.464 261.666 48.232 261.602 49H255.122L257.762 26.392C259.106 26.04 260.13 25.864 260.834 25.864C262.978 25.864 264.098 26.648 264.194 28.216C265.762 26.68 267.634 25.912 269.81 25.912C272.018 25.912 273.746 26.456 274.994 27.544C276.242 28.632 276.866 30.008 276.866 31.672C276.866 32.12 276.77 32.968 276.578 34.216C275.842 39.08 275.474 41.912 275.474 42.712C275.474 44.184 275.97 44.92 276.962 44.92C279.138 44.92 280.786 42.648 281.906 38.104C282.994 39.256 283.65 40.168 283.874 40.84C282.178 46.472 279.234 49.288 275.042 49.288C273.058 49.288 271.586 48.68 270.626 47.464C269.666 46.248 269.186 44.968 269.186 43.624ZM291.245 15.592C291.245 15.784 290.813 19.224 289.949 25.912H297.005V29.608H289.469L289.325 30.808C293.069 33.944 294.941 37.368 294.941 41.08C294.941 43.992 294.189 46.088 292.685 47.368C291.213 48.648 289.437 49.288 287.357 49.288C285.277 49.288 283.757 48.744 282.797 47.656C281.837 46.536 281.357 45.192 281.357 43.624C281.357 43.272 281.389 42.888 281.453 42.472L282.941 29.704L282.749 29.608H278.861C278.829 29.288 278.812 28.776 278.812 28.072C278.812 27.336 278.957 26.616 279.245 25.912H283.373L284.909 12.856C285.581 12.6 286.477 12.472 287.597 12.472C290.029 12.472 291.245 13.512 291.245 15.592ZM291.725 41.032C291.725 38.824 290.765 36.648 288.845 34.504C288.269 39.272 287.981 42.024 287.981 42.76C287.981 44.2 288.445 44.92 289.373 44.92C290.045 44.92 290.605 44.616 291.053 44.008C291.501 43.368 291.725 42.376 291.725 41.032ZM318.257 49.24C315.313 49.24 313.361 48.216 312.401 46.168C310.737 48.248 308.593 49.288 305.969 49.288C303.377 49.288 301.185 48.408 299.393 46.648C297.633 44.888 296.753 42.568 296.753 39.688C296.753 35.496 297.985 32.152 300.449 29.656C302.913 27.16 306.033 25.912 309.809 25.912C309.905 25.912 310.001 25.912 310.097 25.912C311.697 25.912 313.169 26.184 314.513 26.728C315.377 26.184 316.417 25.912 317.633 25.912C318.881 25.912 319.777 26.072 320.321 26.392C320.033 28.76 319.729 31.096 319.409 33.4C319.089 35.672 318.865 37.288 318.737 38.248C318.449 40.424 318.305 41.992 318.305 42.952C318.305 44.232 318.817 44.872 319.841 44.872C320.641 44.872 321.489 44.344 322.385 43.288C323.281 42.2 324.065 40.504 324.737 38.2C325.665 39.032 326.305 39.96 326.657 40.984C325.729 44.024 324.481 46.168 322.913 47.416C321.345 48.632 319.793 49.24 318.257 49.24ZM310.529 29.656C308.481 29.656 306.849 30.44 305.633 32.008C304.449 33.544 303.745 35.848 303.521 38.92C303.489 39.208 303.473 39.48 303.473 39.736C303.473 41.304 303.841 42.552 304.577 43.48C305.345 44.408 306.321 44.872 307.505 44.872C309.521 44.872 311.041 43.448 312.065 40.6L313.217 30.232C312.289 29.848 311.393 29.656 310.529 29.656ZM329.625 49.336C327.673 49.336 326.137 48.792 325.017 47.704C323.897 46.584 323.337 45.064 323.337 43.144C323.337 42.632 324.201 35.032 325.929 20.344C326.377 16.568 327.577 14.184 329.529 13.192C330.425 12.712 331.497 12.472 332.745 12.472C336.969 12.472 339.081 14.424 339.081 18.328C339.081 18.648 339.065 18.984 339.033 19.336C338.713 23.624 336.025 27.992 330.969 32.44C330.809 34.008 330.633 35.528 330.441 37C330.057 40.296 329.865 42.12 329.865 42.472C329.865 44.136 330.585 44.968 332.025 44.968C333.593 44.968 335.049 44.072 336.393 42.28C337.769 40.456 338.825 38.136 339.561 35.32C339.849 35.416 340.249 35.688 340.761 36.136C341.273 36.552 341.625 36.92 341.817 37.24C341.305 39.896 340.153 42.44 338.361 44.872C337.465 46.12 336.329 47.144 334.953 47.944C333.385 48.872 331.609 49.336 329.625 49.336ZM331.497 27.64C334.441 24.408 335.913 21.512 335.913 18.952C335.913 17.416 335.337 16.648 334.185 16.648C333.449 16.712 332.953 17.192 332.697 18.088C332.473 18.984 332.249 20.44 332.025 22.456C331.833 24.472 331.705 25.72 331.641 26.2L331.497 27.64Z" fill="black"/>
<path d="M11.232 81.248C9.376 82.56 8.448 84.512 8.448 87.104C8.448 88.736 9.024 90.272 10.176 91.712C11.36 93.152 13.344 93.872 16.128 93.872C18.912 93.872 21.552 92.928 24.048 91.04C26.544 89.152 28.432 87.088 29.712 84.848L31.344 87.776C27.216 94.784 21.472 98.288 14.112 98.288C10.464 98.288 7.376 97.312 4.848 95.36C2.32 93.376 1.056 91.056 1.056 88.4C1.056 83.76 3.12 80.4 7.248 78.32C5.872 76.624 5.184 74.64 5.184 72.368C5.184 69.392 6.464 66.832 9.024 64.688C11.616 62.544 14.608 61.472 18 61.472C21.392 61.472 24 62.336 25.824 64.064C27.68 65.792 28.608 68.064 28.608 70.88H24.048C24.08 69.152 23.616 67.856 22.656 66.992C21.728 66.096 20.416 65.648 18.72 65.648C17.056 65.648 15.552 66.256 14.208 67.472C12.704 68.784 11.952 70.32 11.952 72.08C11.952 73.84 12.432 75.36 13.392 76.64C16.592 76.256 19.024 76.464 20.688 77.264C21.712 77.744 22.224 78.512 22.224 79.568C22.224 80.592 21.632 81.312 20.448 81.728C19.296 82.144 17.904 82.352 16.272 82.352C14.64 82.352 12.96 81.984 11.232 81.248ZM44.7574 83.312C47.2854 85.168 48.5494 87.36 48.5494 89.888C48.5494 92.416 47.5574 94.448 45.5734 95.984C43.5894 97.52 41.0934 98.288 38.0854 98.288C36.1334 98.288 34.5014 97.808 33.1894 96.848C31.9094 95.856 31.2694 94.64 31.2694 93.2C31.2694 91.76 31.7494 90.624 32.7094 89.792C33.6694 88.928 34.8694 88.4 36.3094 88.208C35.6374 89.168 35.3014 90.096 35.3014 90.992C35.3014 91.856 35.6054 92.56 36.2134 93.104C36.8214 93.648 37.5894 93.92 38.5174 93.92C39.4454 93.92 40.2134 93.584 40.8214 92.912C41.4294 92.208 41.7334 91.408 41.7334 90.512C41.7334 89.04 41.0454 87.728 39.6694 86.576C38.8374 85.904 37.9414 85.28 36.9814 84.704C36.0214 84.096 35.5094 83.776 35.4454 83.744C35.3174 83.648 35.1894 83.568 35.0614 83.504C34.4854 84.176 33.6534 85.104 32.5654 86.288C31.4774 87.44 30.6134 88.368 29.9734 89.072C28.1814 91.024 27.1734 92.656 26.9494 93.968C26.8854 94.224 26.8534 94.72 26.8534 95.456C26.8534 96.16 27.0614 96.896 27.4774 97.664C27.9254 98.432 28.4534 99.008 29.0614 99.392C29.6694 99.776 30.2614 100.08 30.8374 100.304C31.4454 100.56 31.9574 100.736 32.3734 100.832C32.8214 100.928 33.0454 100.992 33.0454 101.024C33.0454 101.248 32.6934 101.504 31.9894 101.792C30.6774 102.272 29.3014 102.512 27.8614 102.512C26.4534 102.512 25.0774 102 23.7334 100.976C21.9094 99.568 20.9974 97.696 20.9974 95.36C20.9974 93.92 21.3654 92.496 22.1014 91.088C23.4134 88.592 26.4854 85.168 31.3174 80.816C30.1334 79.632 29.5414 78.368 29.5414 77.024C29.5414 75.68 30.0374 74.544 31.0294 73.616C32.0534 72.688 33.2534 72.224 34.6294 72.224C35.8774 72.224 36.9654 72.72 37.8934 73.712C38.5014 74.384 38.8054 75.232 38.8054 76.256C38.8054 77.28 38.4694 78.432 37.7974 79.712C41.2214 81.248 43.5414 82.448 44.7574 83.312ZM34.3414 77.888C35.1094 77.088 35.4934 76.512 35.4934 76.16C35.4934 75.36 35.1414 74.928 34.4374 74.864C33.6374 74.864 33.2374 75.312 33.2374 76.208C33.2374 76.752 33.6054 77.312 34.3414 77.888ZM64.4205 81.728C64.4205 79.648 63.4925 78.608 61.6365 78.608C60.2605 78.608 59.0285 79.392 57.9405 80.96C56.7885 82.656 56.2125 84.64 56.2125 86.912C56.2125 89.184 56.7085 90.944 57.7005 92.192C58.7245 93.408 60.1165 94.016 61.8765 94.016C63.9885 94.016 66.2125 93.152 68.5485 91.424C70.9165 89.696 72.8205 87.552 74.2605 84.992C74.9005 85.472 75.5245 86.352 76.1325 87.632C75.2045 89.488 73.4765 91.568 70.9485 93.872C69.6365 95.088 68.0045 96.112 66.0525 96.944C63.9405 97.84 61.8285 98.288 59.7165 98.288C56.8685 98.288 54.4525 97.312 52.4685 95.36C50.5165 93.408 49.5405 90.864 49.5405 87.728C49.5405 83.92 50.8205 80.832 53.3805 78.464C55.9405 76.096 58.8045 74.912 61.9725 74.912C64.4365 74.912 66.3885 75.424 67.8285 76.448C69.2685 77.472 69.9885 78.816 69.9885 80.48C69.9885 81.568 69.6045 82.512 68.8365 83.312C67.4285 84.72 65.7165 85.424 63.7005 85.424C64.1805 83.824 64.4205 82.592 64.4205 81.728ZM93.2565 98.24C90.3125 98.24 88.3605 97.216 87.4005 95.168C85.7365 97.248 83.5925 98.288 80.9685 98.288C78.3765 98.288 76.1845 97.408 74.3925 95.648C72.6325 93.888 71.7525 91.568 71.7525 88.688C71.7525 84.496 72.9845 81.152 75.4485 78.656C77.9125 76.16 81.0325 74.912 84.8085 74.912C84.9045 74.912 85.0005 74.912 85.0965 74.912C86.6965 74.912 88.1685 75.184 89.5125 75.728C90.3765 75.184 91.4165 74.912 92.6325 74.912C93.8805 74.912 94.7765 75.072 95.3205 75.392C95.0325 77.76 94.7285 80.096 94.4085 82.4C94.0885 84.672 93.8645 86.288 93.7365 87.248C93.4485 89.424 93.3045 90.992 93.3045 91.952C93.3045 93.232 93.8165 93.872 94.8405 93.872C95.6405 93.872 96.4885 93.344 97.3845 92.288C98.2805 91.2 99.0645 89.504 99.7365 87.2C100.665 88.032 101.305 88.96 101.657 89.984C100.729 93.024 99.4805 95.168 97.9125 96.416C96.3445 97.632 94.7925 98.24 93.2565 98.24ZM85.5285 78.656C83.4805 78.656 81.8485 79.44 80.6325 81.008C79.4485 82.544 78.7445 84.848 78.5205 87.92C78.4885 88.208 78.4725 88.48 78.4725 88.736C78.4725 90.304 78.8405 91.552 79.5765 92.48C80.3445 93.408 81.3205 93.872 82.5045 93.872C84.5205 93.872 86.0405 92.448 87.0645 89.6L88.2165 79.232C87.2885 78.848 86.3925 78.656 85.5285 78.656ZM103.473 74.864C105.553 74.864 106.769 75.392 107.121 76.448C108.625 75.392 110.529 74.864 112.833 74.864C115.137 74.864 117.121 75.808 118.785 77.696C120.449 79.584 121.281 81.792 121.281 84.32C121.281 84.672 121.265 85.04 121.233 85.424C120.881 89.616 119.473 92.816 117.009 95.024C114.545 97.2 111.329 98.288 107.361 98.288C106.465 98.288 105.489 98.176 104.433 97.952L102.897 111.152H96.6094C98.6574 93.52 100.033 81.552 100.737 75.248C101.409 74.992 102.321 74.864 103.473 74.864ZM114.513 84.656C114.513 83.248 114.193 82 113.553 80.912C112.913 79.824 111.921 79.28 110.577 79.28C108.753 79.28 107.361 80.464 106.401 82.832C105.761 87.568 105.393 90.32 105.297 91.088C105.265 92.048 105.569 92.768 106.209 93.248C106.849 93.728 107.633 93.968 108.561 93.968C110.193 93.968 111.537 93.232 112.593 91.76C113.873 89.936 114.513 87.568 114.513 84.656ZM132.528 87.248C134.512 86.832 135.984 86.032 136.944 84.848C137.936 83.664 138.432 82.528 138.432 81.44C138.432 80.32 138.128 79.568 137.52 79.184C136.944 78.768 136.304 78.56 135.6 78.56C134.096 78.56 132.768 79.408 131.616 81.104C130.496 82.768 129.936 84.768 129.936 87.104C129.936 89.408 130.48 91.136 131.568 92.288C132.688 93.408 134.064 93.968 135.696 93.968C138.096 93.968 140.4 93.136 142.608 91.472C144.816 89.808 146.608 87.632 147.984 84.944C148.688 85.616 149.328 86.448 149.904 87.44C148.848 89.84 146.976 92.192 144.288 94.496C142.944 95.616 141.344 96.528 139.488 97.232C137.664 97.936 135.776 98.288 133.824 98.288C130.624 98.288 128.096 97.312 126.24 95.36C124.256 93.248 123.264 90.544 123.264 87.248C123.264 83.952 124.496 81.072 126.96 78.608C129.456 76.144 132.432 74.912 135.888 74.912C138.352 74.912 140.352 75.456 141.888 76.544C143.424 77.6 144.208 79.04 144.24 80.864C144.24 83.328 143.248 85.328 141.264 86.864C139.312 88.4 136.624 89.472 133.2 90.08L132.528 87.248ZM166.023 83.312C168.551 85.168 169.815 87.36 169.815 89.888C169.815 92.416 168.823 94.448 166.839 95.984C164.855 97.52 162.359 98.288 159.351 98.288C157.399 98.288 155.767 97.808 154.455 96.848C153.175 95.856 152.535 94.64 152.535 93.2C152.535 91.76 153.015 90.624 153.975 89.792C154.935 88.928 156.135 88.4 157.575 88.208C156.903 89.168 156.567 90.096 156.567 90.992C156.567 91.856 156.871 92.56 157.479 93.104C158.087 93.648 158.855 93.92 159.783 93.92C160.711 93.92 161.479 93.584 162.087 92.912C162.695 92.208 162.999 91.408 162.999 90.512C162.999 89.04 162.311 87.728 160.935 86.576C160.103 85.904 159.207 85.28 158.247 84.704C157.287 84.096 156.775 83.776 156.711 83.744C156.583 83.648 156.455 83.568 156.327 83.504C155.751 84.176 154.919 85.104 153.831 86.288C152.743 87.44 151.879 88.368 151.239 89.072C149.447 91.024 148.439 92.656 148.215 93.968C148.151 94.224 148.119 94.72 148.119 95.456C148.119 96.16 148.327 96.896 148.743 97.664C149.191 98.432 149.719 99.008 150.327 99.392C150.935 99.776 151.527 100.08 152.103 100.304C152.711 100.56 153.223 100.736 153.639 100.832C154.087 100.928 154.311 100.992 154.311 101.024C154.311 101.248 153.959 101.504 153.255 101.792C151.943 102.272 150.567 102.512 149.127 102.512C147.719 102.512 146.343 102 144.999 100.976C143.175 99.568 142.263 97.696 142.263 95.36C142.263 93.92 142.631 92.496 143.367 91.088C144.679 88.592 147.751 85.168 152.583 80.816C151.399 79.632 150.807 78.368 150.807 77.024C150.807 75.68 151.303 74.544 152.295 73.616C153.319 72.688 154.519 72.224 155.895 72.224C157.143 72.224 158.231 72.72 159.159 73.712C159.767 74.384 160.071 75.232 160.071 76.256C160.071 77.28 159.735 78.432 159.063 79.712C162.487 81.248 164.807 82.448 166.023 83.312ZM155.607 77.888C156.375 77.088 156.759 76.512 156.759 76.16C156.759 75.36 156.407 74.928 155.703 74.864C154.903 74.864 154.503 75.312 154.503 76.208C154.503 76.752 154.871 77.312 155.607 77.888Z" fill="black"/>
</svg>
